<?xml version="1.0" encoding="UTF-8"?>
<svg width="400" height="150" version="1.1" xmlns="http://www.w3.org/2000/svg">
 <g fill-rule="evenodd" stroke="#000" stroke-width="2">
  <path d="m25.25 25 49.75-1e-5 10 40-15 20-45-15z" fill="#ffd700"/>
  <path d="m25 70 45 15 25 20 5 20h-75z" fill="#228b22"/>
  <path d="m70 85 15-20 10 40z" fill="#f00"/>
  <path d="m75 25 25 100h50v-100z" fill="#4682b4"/>
 </g>
 <g fill="#b3b3b3">
  <circle cx="40" cy="40" r="2.5"/>
  <circle cx="80" cy="85" r="2.5"/>
  <circle cx="80" cy="120" r="2.5"/>
  <circle cx="145" cy="75" r="2.5"/>
 </g>
 <g fill="none" stroke="#000" stroke-width="2">
  <path d="m265 40 40 80 65-45z"/>
  <path d="m265 40 40 45"/>
  <path d="m305 120v-35l65-10"/>
 </g>
 <g stroke="#000" stroke-linejoin="round">
  <circle cx="265" cy="40" r="2.5" fill="#ffd700"/>
  <circle cx="305" cy="85" r="2.5" fill="#f00"/>
  <circle cx="305" cy="120" r="2.5" fill="#228b22"/>
  <circle cx="370" cy="75" r="2.5" fill="#4682b4"/>
  <path d="m235 75h-70" fill="#255e91" stroke-width="2"/>
  <path d="m228.91 69.08 16.093 5.9179-16.093 5.9179c1.2855-1.747 1.9246-3.8155 1.9227-5.8924-2e-3 -2.077-1.9227-5.9434-1.9227-5.9434z"/>
  <path d="m171.1 69.08-16.093 5.9179 16.093 5.9179c-1.2855-1.747-1.9246-3.8155-1.9227-5.8924 2e-3 -2.077 1.9227-5.9434 1.9227-5.9434z"/>
 </g>
 <g fill="none" stroke="#000" stroke-dasharray="2, 1">
  <path d="m40 40 40 80 65-45z"/>
  <path d="m40 40 40 45"/>
  <path d="m80 120v-35l65-10"/>
  <path d="m250 70 0.25-45h49.75l10 40-15 20"/>
  <path d="m250 70 45 15 25 20 5 20h-75z"/>
  <path d="m325 125h50v-100h-75"/>
  <path d="m320 105-10-40"/>
 </g>
</svg>
