<?xml version="1.0" encoding="UTF-8" standalone="no"?>
<!-- Created with Inkscape (http://www.inkscape.org/) -->
<svg
   xmlns:svg="http://www.w3.org/2000/svg"
   xmlns="http://www.w3.org/2000/svg"
   version="1.0"
   width="283.8851"
   height="147.28543"
   id="svg2">
  <defs
     id="defs3" />
  <g
     transform="translate(-201.2442,-434.6455)"
     style="display:inline"
     id="layer2">
    <path
       d="M 206.66964,489.04598 L 248.7385,573.7565"
       style="opacity:1;fill:none;fill-opacity:1;fill-rule:evenodd;stroke:red;stroke-width:1;stroke-linecap:round;stroke-linejoin:miter;stroke-miterlimit:4.00339985;stroke-dasharray:none;stroke-dashoffset:0;stroke-opacity:1"
       id="path2902" />
    <path
       d="M 207.36972,488.48592 L 252.93901,505.35801"
       style="opacity:1;fill:none;fill-opacity:1;fill-rule:evenodd;stroke:red;stroke-width:1;stroke-linecap:round;stroke-linejoin:miter;stroke-miterlimit:4.00339985;stroke-dasharray:none;stroke-dashoffset:0;stroke-opacity:1"
       id="path2906" />
    <path
       d="M 206.54235,485.9656 L 253.57546,439.33981"
       style="opacity:1;fill:none;fill-opacity:1;fill-rule:evenodd;stroke:red;stroke-width:1;stroke-linecap:round;stroke-linejoin:miter;stroke-miterlimit:4.00339985;stroke-dasharray:none;stroke-dashoffset:0;stroke-opacity:1"
       id="path2904" />
    <path
       d="M 250.64783,571.65624 L 255.03928,506.54816"
       style="fill:none;fill-opacity:1;fill-rule:evenodd;stroke:black;stroke-width:1;stroke-linecap:round;stroke-linejoin:miter;stroke-miterlimit:4.00339985;stroke-dasharray:none;stroke-dashoffset:0;stroke-opacity:1"
       id="path2882" />
    <path
       d="M 254.53013,504.93796 L 256.37581,439.68986"
       style="fill:none;fill-opacity:1;fill-rule:evenodd;stroke:black;stroke-width:1;stroke-linecap:round;stroke-linejoin:miter;stroke-miterlimit:4.00339985;stroke-dasharray:none;stroke-dashoffset:0;stroke-opacity:1"
       id="path2884" />
    <path
       d="M 300.60858,520.26986 L 255.80301,439.12979"
       style="fill:none;fill-opacity:1;fill-rule:evenodd;stroke:black;stroke-width:1;stroke-linecap:round;stroke-linejoin:miter;stroke-miterlimit:4.00339985;stroke-dasharray:none;stroke-dashoffset:0;stroke-opacity:1"
       id="path2886" />
    <path
       d="M 254.72106,506.12811 L 299.08111,522.09009"
       style="fill:none;fill-opacity:1;fill-rule:evenodd;stroke:red;stroke-width:1;stroke-linecap:round;stroke-linejoin:miter;stroke-miterlimit:4.00339985;stroke-dasharray:none;stroke-dashoffset:0;stroke-opacity:1"
       id="path2888" />
    <path
       d="M 253.97336 572.31116 A 4.0890722 4.0890722 0 1 1  245.79522,572.31116 A 4.0890722 4.0890722 0 1 1  253.97336 572.31116 z"
       style="fill:black;fill-opacity:1;fill-rule:evenodd;stroke:none;stroke-width:1;stroke-linecap:round;stroke-linejoin:miter;stroke-miterlimit:4.00339985;stroke-dasharray:none;stroke-dashoffset:0;stroke-opacity:1"
       id="path2892" />
    <path
       d="M 253.97336 572.31116 A 4.0890722 4.0890722 0 1 1  245.79522,572.31116 A 4.0890722 4.0890722 0 1 1  253.97336 572.31116 z"
       transform="translate(4.582387,-66.29823)"
       style="fill:black;fill-opacity:1;fill-rule:evenodd;stroke:none;stroke-width:1;stroke-linecap:round;stroke-linejoin:miter;stroke-miterlimit:4.00339985;stroke-dasharray:none;stroke-dashoffset:0;stroke-opacity:1"
       id="path2894" />
    <path
       d="M 253.97336 572.31116 A 4.0890722 4.0890722 0 1 1  245.79522,572.31116 A 4.0890722 4.0890722 0 1 1  253.97336 572.31116 z"
       transform="translate(49.57888,-50.89632)"
       style="fill:black;fill-opacity:1;fill-rule:evenodd;stroke:none;stroke-width:1;stroke-linecap:round;stroke-linejoin:miter;stroke-miterlimit:4.00339985;stroke-dasharray:none;stroke-dashoffset:0;stroke-opacity:1"
       id="path2896" />
    <path
       d="M 253.97336 572.31116 A 4.0890722 4.0890722 0 1 1  245.79522,572.31116 A 4.0890722 4.0890722 0 1 1  253.97336 572.31116 z"
       transform="translate(5.282471,-133.5766)"
       style="fill:black;fill-opacity:1;fill-rule:evenodd;stroke:none;stroke-width:1;stroke-linecap:round;stroke-linejoin:miter;stroke-miterlimit:4.00339985;stroke-dasharray:none;stroke-dashoffset:0;stroke-opacity:1"
       id="path2898" />
    <path
       d="M 253.97336 572.31116 A 4.0890722 4.0890722 0 1 1  245.79522,572.31116 A 4.0890722 4.0890722 0 1 1  253.97336 572.31116 z"
       transform="translate(-44.55099,-84.57051)"
       style="opacity:1;fill:red;fill-opacity:1;fill-rule:evenodd;stroke:none;stroke-width:1;stroke-linecap:round;stroke-linejoin:miter;stroke-miterlimit:4.00339985;stroke-dasharray:none;stroke-dashoffset:0;stroke-opacity:1"
       id="path2900" />
    <path
       d="M 432.22493,577.18693 L 436.61638,512.07885"
       style="fill:none;fill-opacity:1;fill-rule:evenodd;stroke:black;stroke-width:1;stroke-linecap:round;stroke-linejoin:miter;stroke-miterlimit:4.00339985;stroke-dasharray:none;stroke-dashoffset:0;stroke-opacity:1"
       id="path2920" />
    <path
       d="M 436.10723,510.46865 L 437.95291,445.22055"
       style="fill:none;fill-opacity:1;fill-rule:evenodd;stroke:black;stroke-width:1;stroke-linecap:round;stroke-linejoin:miter;stroke-miterlimit:4.00339985;stroke-dasharray:none;stroke-dashoffset:0;stroke-opacity:1"
       id="path2922" />
    <path
       d="M 482.18568,525.80055 L 437.38011,444.66048"
       style="fill:none;fill-opacity:1;fill-rule:evenodd;stroke:black;stroke-width:1;stroke-linecap:round;stroke-linejoin:miter;stroke-miterlimit:4.00339985;stroke-dasharray:none;stroke-dashoffset:0;stroke-opacity:1"
       id="path2924" />
    <path
       d="M 253.97336 572.31116 A 4.0890722 4.0890722 0 1 1  245.79522,572.31116 A 4.0890722 4.0890722 0 1 1  253.97336 572.31116 z"
       transform="translate(181.5771,5.530687)"
       style="fill:black;fill-opacity:1;fill-rule:evenodd;stroke:none;stroke-width:1;stroke-linecap:round;stroke-linejoin:miter;stroke-miterlimit:4.00339985;stroke-dasharray:none;stroke-dashoffset:0;stroke-opacity:1"
       id="path2928" />
    <path
       d="M 253.97336 572.31116 A 4.0890722 4.0890722 0 1 1  245.79522,572.31116 A 4.0890722 4.0890722 0 1 1  253.97336 572.31116 z"
       transform="translate(186.1595,-60.76754)"
       style="fill:black;fill-opacity:1;fill-rule:evenodd;stroke:none;stroke-width:1;stroke-linecap:round;stroke-linejoin:miter;stroke-miterlimit:4.00339985;stroke-dasharray:none;stroke-dashoffset:0;stroke-opacity:1"
       id="path2930" />
    <path
       d="M 253.97336 572.31116 A 4.0890722 4.0890722 0 1 1  245.79522,572.31116 A 4.0890722 4.0890722 0 1 1  253.97336 572.31116 z"
       transform="translate(231.156,-45.36563)"
       style="fill:black;fill-opacity:1;fill-rule:evenodd;stroke:none;stroke-width:1;stroke-linecap:round;stroke-linejoin:miter;stroke-miterlimit:4.00339985;stroke-dasharray:none;stroke-dashoffset:0;stroke-opacity:1"
       id="path2932" />
    <path
       d="M 253.97336 572.31116 A 4.0890722 4.0890722 0 1 1  245.79522,572.31116 A 4.0890722 4.0890722 0 1 1  253.97336 572.31116 z"
       transform="translate(186.8596,-128.0459)"
       style="fill:black;fill-opacity:1;fill-rule:evenodd;stroke:none;stroke-width:1;stroke-linecap:round;stroke-linejoin:miter;stroke-miterlimit:4.00339985;stroke-dasharray:none;stroke-dashoffset:0;stroke-opacity:1"
       id="path2934" />
    <path
       d="M 334.26818,512.53354 L 334.26818,504.57947 L 359.28045,504.63376 L 358.39201,500.58885 L 383.3179,508.97728 L 358.36733,517.61004 L 360.25528,512.60141 L 334.26818,512.53354 z "
       style="opacity:1;fill:black;fill-opacity:1;fill-rule:evenodd;stroke:none;stroke-width:1;stroke-linecap:round;stroke-linejoin:round;stroke-miterlimit:4.00339985;stroke-dasharray:none;stroke-dashoffset:0;stroke-opacity:1"
       id="path2954" />
  </g>
</svg>
